<svg width="67" height="67" xmlns="http://www.w3.org/2000/svg" xml:space="preserve" version="1.1">

 <g>
  <title>Layer 1</title>
  <path id="svg_1" fill="#007AB9" clip-rule="evenodd" fill-rule="evenodd" d="m52.15722,49.15411l0,-13.02682c0,-6.97945 -3.72608,-10.22725 -8.69344,-10.22725c-4.00859,0 -5.8049,2.20562 -6.80593,3.75277l0,-3.21889l-7.55226,0c0.1001,2.13221 0,22.72019 0,22.72019l7.55226,0l0,-12.68869c0,-0.67737 0.04894,-1.35585 0.24915,-1.84079c0.54501,-1.35696 1.78741,-2.76175 3.8729,-2.76175c2.73394,0 3.82618,2.08327 3.82618,5.13643l0,12.15592l7.55115,0l0,-0.00111zm-31.00766,-25.82118c2.63273,0 4.27331,-1.74625 4.27331,-3.9274c-0.04894,-2.22786 -1.64059,-3.92406 -4.22326,-3.92406s-4.2722,1.69509 -4.2722,3.92406c0,2.18115 1.63948,3.9274 4.17432,3.9274l0.04783,0zm12.28049,43.465c-18.42797,0 -33.36788,-14.93991 -33.36788,-33.36788c0,-18.42908 14.93991,-33.36788 33.36788,-33.36788s33.36788,14.9388 33.36788,33.36788c0,18.42797 -14.93991,33.36788 -33.36788,33.36788zm-8.50436,-17.64382l0,-22.72019l-7.55115,0l0,22.72019l7.55115,0z"/>
 </g>
</svg>
