<svg width="67" height="67" xmlns="http://www.w3.org/2000/svg" xml:space="preserve" version="1.1">

 <g>
  <title>Layer 1</title>
  <path id="svg_1" fill="#598DCA" clip-rule="evenodd" fill-rule="evenodd" d="m38.13727,20.55141c-2.89961,1.05511 -4.73193,3.77646 -4.52379,6.75468l0.06975,1.14921l-1.16029,-0.14061c-4.22154,-0.53918 -7.91054,-2.36818 -11.04264,-5.44161l-1.53118,-1.52454l-0.39414,1.12596c-0.83479,2.50989 -0.30114,5.16039 1.43818,6.94289c0.92779,0.98536 0.71854,1.12596 -0.88129,0.53918c-0.55689,-0.18711 -1.04404,-0.32771 -1.09054,-0.25796c-0.16164,0.16496 0.39414,2.29843 0.83479,3.14318c0.60339,1.17357 1.83232,2.32168 3.17861,3.00257l1.13704,0.53918l-1.34518,0.02325c-1.29868,0 -1.34518,0.02325 -1.20568,0.51704c0.46389,1.52454 2.29621,3.14318 4.33779,3.84732l1.43818,0.49157l-1.25218,0.75064c-1.85557,1.08057 -4.03664,1.6895 -6.21771,1.73489c-1.04514,0.02325 -1.90318,0.11736 -1.90318,0.18821c0,0.23361 2.83096,1.54668 4.47729,2.06371c4.94118,1.52454 10.81125,0.86689 15.21878,-1.736c3.13211,-1.85336 6.26311,-5.53571 7.72564,-9.10182c0.78939,-1.89875 1.57768,-5.37075 1.57768,-7.03479c0,-1.07946 0.06975,-1.22007 1.36843,-2.50989c0.76614,-0.75064 1.48468,-1.57104 1.62418,-1.80575c0.2325,-0.44618 0.20814,-0.44618 -0.97429,-0.04761c-1.97182,0.70414 -2.25082,0.61004 -1.27543,-0.44507c0.71854,-0.75064 1.57768,-2.11132 1.57768,-2.50989c0,-0.06975 -0.34764,0.0465 -0.74289,0.25796c-0.41739,0.23471 -1.34518,0.58679 -2.04157,0.79714l-1.25218,0.39968l-1.13704,-0.775c-0.62664,-0.42182 -1.50682,-0.89125 -1.97182,-1.03186c-1.18354,-0.32771 -2.99371,-0.28121 -4.061,0.09411zm-4.61346,46.18667c-18.34314,0 -33.21428,-14.87114 -33.21428,-33.21428c0,-18.34425 14.87114,-33.21428 33.21428,-33.21428s33.21428,14.87003 33.21428,33.21428c0,18.34314 -14.87114,33.21428 -33.21428,33.21428z"/>
 </g>
</svg>
